<svg xmlns="http://www.w3.org/2000/svg" width="24" height="24" viewBox="0 0 24 24" fill="none">
<path d="M12 3C12.8262 3 13.623 3.10547 14.3906 3.31641C15.1582 3.52734 15.873 3.83203 16.5352 4.23047C17.1973 4.62891 17.8037 5.09766 18.3545 5.63672C18.9053 6.17578 19.377 6.78223 19.7695 7.45605C20.1621 8.12988 20.4639 8.84766 20.6748 9.60938C20.8857 10.3711 20.9941 11.168 21 12C21 12.8262 20.8945 13.623 20.6836 14.3906C20.4727 15.1582 20.168 15.873 19.7695 16.5352C19.3711 17.1973 18.9023 17.8037 18.3633 18.3545C17.8242 18.9053 17.2178 19.377 16.5439 19.7695C15.8701 20.1621 15.1523 20.4639 14.3906 20.6748C13.6289 20.8857 12.832 20.9941 12 21C11.1738 21 10.377 20.8945 9.60938 20.6836C8.8418 20.4727 8.12695 20.168 7.46484 19.7695C6.80273 19.3711 6.19629 18.9023 5.64551 18.3633C5.09473 17.8242 4.62305 17.2178 4.23047 16.5439C3.83789 15.8701 3.53613 15.1523 3.3252 14.3906C3.11426 13.6289 3.00586 12.832 3 12C3 11.1738 3.10547 10.377 3.31641 9.60938C3.52734 8.8418 3.83203 8.12695 4.23047 7.46484C4.62891 6.80273 5.09766 6.19629 5.63672 5.64551C6.17578 5.09473 6.78223 4.62305 7.45605 4.23047C8.12988 3.83789 8.84766 3.53613 9.60938 3.3252C10.3711 3.11426 11.168 3.00586 12 3ZM12 19.875C12.7266 19.875 13.4238 19.7812 14.0918 19.5938C14.7598 19.4062 15.3867 19.1426 15.9727 18.8027C16.5586 18.4629 17.0889 18.0527 17.5635 17.5723C18.0381 17.0918 18.4482 16.5615 18.7939 15.9814C19.1396 15.4014 19.4062 14.7744 19.5938 14.1006C19.7812 13.4268 19.875 12.7266 19.875 12C19.875 11.2734 19.7812 10.5762 19.5938 9.9082C19.4062 9.24023 19.1426 8.61328 18.8027 8.02734C18.4629 7.44141 18.0527 6.91113 17.5723 6.43652C17.0918 5.96191 16.5615 5.55176 15.9814 5.20605C15.4014 4.86035 14.7744 4.59375 14.1006 4.40625C13.4268 4.21875 12.7266 4.125 12 4.125C11.2734 4.125 10.5762 4.21875 9.9082 4.40625C9.24023 4.59375 8.61328 4.85742 8.02734 5.19727C7.44141 5.53711 6.91113 5.94727 6.43652 6.42773C5.96191 6.9082 5.55176 7.43848 5.20605 8.01855C4.86035 8.59863 4.59375 9.22559 4.40625 9.89941C4.21875 10.5732 4.125 11.2734 4.125 12C4.125 12.7266 4.21875 13.4238 4.40625 14.0918C4.59375 14.7598 4.85742 15.3867 5.19727 15.9727C5.53711 16.5586 5.94727 17.0889 6.42773 17.5635C6.9082 18.0381 7.43848 18.4482 8.01855 18.7939C8.59863 19.1396 9.22559 19.4062 9.89941 19.5938C10.5732 19.7812 11.2734 19.875 12 19.875ZM15.8936 8.89746L12.7998 12L15.8936 15.1025L15.1025 15.8936L12 12.7998L8.89746 15.8936L8.10645 15.1025L11.2002 12L8.10645 8.89746L8.89746 8.10645L12 11.2002L15.1025 8.10645L15.8936 8.89746Z" fill="#030303" stroke="#030303" stroke-width="0.6"/>
</svg>