<svg xmlns="http://www.w3.org/2000/svg" width="21" height="20" viewBox="0 0 21 20" fill="none">
<path d="M4.66667 4.16667H9.66667C10.125 4.16667 10.5 3.79167 10.5 3.33333C10.5 2.875 10.125 2.5 9.66667 2.5H4.66667C3.75 2.5 3 3.25 3 4.16667V15.8333C3 16.75 3.75 17.5 4.66667 17.5H9.66667C10.125 17.5 10.5 17.125 10.5 16.6667C10.5 16.2083 10.125 15.8333 9.66667 15.8333H4.66667V4.16667Z" fill="#FF7663"/>
<path d="M17.7083 9.70812L15.3833 7.38312C15.3254 7.32358 15.251 7.28269 15.1696 7.26568C15.0883 7.24867 15.0038 7.25631 14.9268 7.28763C14.8498 7.31896 14.784 7.37253 14.7376 7.4415C14.6913 7.51047 14.6666 7.5917 14.6667 7.67479V9.16646H8.83333C8.375 9.16646 8 9.54146 8 9.99979C8 10.4581 8.375 10.8331 8.83333 10.8331H14.6667V12.3248C14.6667 12.6998 15.1167 12.8831 15.375 12.6165L17.7 10.2915C17.8667 10.1331 17.8667 9.86646 17.7083 9.70812Z" fill="#FF7663"/>
</svg>